<svg width="18" height="17" viewBox="0 0 18 17" fill="none" xmlns="http://www.w3.org/2000/svg">
<path d="M0.666656 3.52083C0.666656 2.71966 0.984922 1.9513 1.55144 1.38478C2.11795 0.818266 2.88632 0.5 3.68749 0.5H14.3125C15.1137 0.5 15.882 0.818266 16.4485 1.38478C17.0151 1.9513 17.3333 2.71966 17.3333 3.52083V9.97917C17.3333 10.7803 17.0151 11.5487 16.4485 12.1152C15.882 12.6817 15.1137 13 14.3125 13H9.99874L5.47791 16.1908C4.85707 16.6292 3.99999 16.185 3.99999 15.425V13H3.68749C2.88632 13 2.11795 12.6817 1.55144 12.1152C0.984922 11.5487 0.666656 10.7803 0.666656 9.97917V3.52083Z" fill="#CEA20E"/>
</svg>
