<svg width="16" height="18" viewBox="0 0 16 18" fill="none" xmlns="http://www.w3.org/2000/svg">
<path d="M15.3027 9.42384C15.6309 8.99025 15.8125 8.459 15.8125 7.90626C15.8125 7.02931 15.3223 6.19923 14.5332 5.73634C14.3301 5.61719 14.0988 5.55448 13.8633 5.5547H9.17969L9.29688 3.15431C9.32422 2.57423 9.11914 2.02345 8.7207 1.60353C8.52517 1.39655 8.28926 1.23188 8.02757 1.11967C7.76588 1.00747 7.48395 0.950127 7.19922 0.951186C6.18359 0.951186 5.28516 1.63478 5.01562 2.6133L3.33789 8.68751H3.33203V17.0469H12.5566C12.7363 17.0469 12.9121 17.0117 13.0742 16.9414C14.0039 16.5449 14.6035 15.6367 14.6035 14.6289C14.6035 14.3828 14.5684 14.1406 14.498 13.9063C14.8262 13.4727 15.0078 12.9414 15.0078 12.3887C15.0078 12.1426 14.9727 11.9004 14.9023 11.666C15.2305 11.2324 15.4121 10.7012 15.4121 10.1485C15.4082 9.90236 15.373 9.65822 15.3027 9.42384ZM0.1875 9.31251V16.4219C0.1875 16.7676 0.466797 17.0469 0.8125 17.0469H2.08203V8.68751H0.8125C0.466797 8.68751 0.1875 8.96681 0.1875 9.31251Z" fill="#CEA20E"/>
</svg>
