<svg width="21" height="20" viewBox="0 0 21 20" fill="none" xmlns="http://www.w3.org/2000/svg">
<path d="M13.0345 0H1.44828C1.06417 0 0.695796 0.148837 0.424191 0.41377C0.152586 0.678702 0 1.03803 0 1.4127V18.3651C0 18.7397 0.152586 19.0991 0.424191 19.364C0.695796 19.6289 1.06417 19.7778 1.44828 19.7778H13.0345C13.4186 19.7778 13.787 19.6289 14.0586 19.364C14.3302 19.0991 14.4828 18.7397 14.4828 18.3651V14.127H7.6976C7.50554 14.127 7.32136 14.0526 7.18555 13.9201C7.04975 13.7876 6.97346 13.608 6.97346 13.4206C6.97346 13.2333 7.04975 13.0536 7.18555 12.9212C7.32136 12.7887 7.50554 12.7143 7.6976 12.7143H14.4828V1.4127C14.4828 1.03803 14.3302 0.678702 14.0586 0.41377C13.787 0.148837 13.4186 0 13.0345 0Z" fill="#CEA20E"/>
<path d="M16.771 9.38036C16.6325 9.26464 16.4543 9.20417 16.272 9.21104C16.0898 9.2179 15.9169 9.2916 15.7879 9.4174C15.659 9.54319 15.5834 9.71183 15.5764 9.8896C15.5693 10.0674 15.6313 10.2412 15.75 10.3763L18.1976 12.7143H14.4827V14.127H18.1976L15.75 16.571C15.6742 16.6343 15.6126 16.7122 15.5691 16.7999C15.5257 16.8875 15.5012 16.983 15.4974 17.0802C15.4935 17.1775 15.5103 17.2745 15.5467 17.3652C15.5832 17.4558 15.6384 17.5381 15.7089 17.607C15.7795 17.6758 15.8639 17.7297 15.9568 17.7652C16.0498 17.8007 16.1492 17.8171 16.2489 17.8133C16.3487 17.8096 16.4465 17.7857 16.5364 17.7433C16.6262 17.7009 16.7061 17.6409 16.771 17.5669L21 13.4701L16.771 9.38036Z" fill="#CEA20E"/>
</svg>
